<svg xmlns="http://www.w3.org/2000/svg" xml:space="preserve" width="312.24" height="450.582" style="clip-rule:evenodd;fill-rule:evenodd;stroke-linejoin:round;stroke-miterlimit:1.5"><defs><clipPath id="a" clipPathUnits="userSpaceOnUse"><path d="M1637.93 1186.08s-50.71-3.27-47.42-38.49c1.34-14.32 28.98-46.82 28.98-46.82s-55.15-21-58.36-39.86c-4.63-27.24 9.22-65.737 9.22-65.737s-20.86-28.931-15.96-49.144c5.34-22.043 48.02-83.112 48.02-83.112s-2.12-65.921 14.76-94.328c15.65-26.333 86.52-76.113 86.52-76.113s78.14-72.914 96.92-101.184c17.73-26.696 35.01-41.186 44.01-47.595 4.03-2.869 6.39-4.118 6.39-4.118.32.086 1.92-19.528 27.93-33.411 11.61-6.193 70.49 47.949 78.76 69.204 6.64 17.077 24.83 31.924 29.24 51.297 7.75 34.033-1.05 70.283-3.7 73.031 0 0 46.74 16.492 57.46 34.147 10.17 16.755 6.84 71.78 6.84 71.78s37.46 32.954 40.18 58.18c2.74 25.435-23.73 94.429-23.73 94.429s14.58 49.734 14.36 71.524c-.22 22.42-15.69 63.05-15.69 63.05l-110.46 80.21-118.66 17.4-107.48 18.7z" style="clip-rule:evenodd;fill-rule:evenodd;stroke-width:1;stroke-linejoin:round;stroke-miterlimit:1.5"/></clipPath></defs><path d="M1721.79 1833.84h-87.94v-7.33h106.74c-6.6 2.61-12.94 5.08-18.8 7.33" style="fill:#fff" transform="matrix(.1855 .59647 -2.3995 .6301 4132.345 -1784.65)"/><path d="M1760.11 1825.96c3.92.3 13.51 4.28 20.64 6.16 6.33 1.67 7.5 4.66 12.59 6.66l-.07.01c1.65.62 3.07 1.28 4.22 1.98 10.89 6.6 2.31 26.75 3.02 41.59.11 2.47.76.61-.49 2.55l-22.98 3.74c.57-1.98 3.72-4.54 4.26-6.82 3.36-14.25 5.32-33.06-4.6-41.43l-.38.03c-.81-.51-1.62-1-2.44-1.47-3.14-1.78-6.72-3.49-10.63-5.12h-129.4l-5.5-7.49z" style="fill:#fff" transform="matrix(-.23378 .9007 -3.41068 -.74753 6907.785 206.953)"/><g clip-path="url(#a)" transform="matrix(.55813 0 0 .51287 -860.096 -252.847)"><path d="m209.42 384.222 59.03-15.376 86.091-151.903c25.793-2.07 25.966-5.953 70.722 10.366l-61.89-30.497 17.639-23.865 28.844-51.298-25.193-42.536" style="fill:#b55690" transform="matrix(-.7423 -2.31103 -2.31103 .7423 2527.45 1303.5)"/><path d="m209.42 384.222 59.03-15.376 86.091-151.903 84.159.365 13.327-21.359-12.232-22.089-58.783-.913 28.844-51.298-25.193-42.536" style="fill:#a30262" transform="scale(2.42731 -2.42731)rotate(53.018 1045.677 365.165)"/><path d="m209.42 384.222 59.03-15.376 86.091-151.903 84.159.365 13.327-21.359-12.232-22.089-58.783-.913 28.844-51.298-25.193-42.536" style="fill:#d162a4" transform="matrix(-.8092 -2.28846 2.28846 -.8092 1644.02 1739.14)"/><path d="m209.42 384.222 59.03-15.376 86.091-151.903 84.159.365 13.327-21.359-12.232-22.089-58.783-.913 28.844-51.298-25.193-42.536" style="fill:#b55690" transform="scale(2.42732 -2.42732)rotate(69.349 952.676 239.516)"/><path d="m209.42 384.222 59.03-15.376 86.091-151.903 84.159.365 13.327-21.359-12.232-22.089-58.783-.913 28.844-51.298-25.193-42.536" style="fill:#a30262" transform="scale(-2.42731)rotate(53.018 389.278 -1185.362)"/><path d="m209.42 384.222 59.03-15.376 86.091-151.903 84.159.365 13.327-21.359-12.232-22.089-58.783-.913 28.844-51.298-25.193-42.536" style="fill:#d162a4" transform="matrix(1.54799 -2.17474 -1.97751 -1.4076 1747.15 2066.13)"/><path d="m209.42 384.222 59.03-15.376 86.091-151.903 84.159.365 13.327-21.359-12.232-22.089-58.301-1.199 28.362-51.012-25.193-42.536" style="fill:#b55690" transform="scale(-2.42732)rotate(32.843 917.914 -1927.87)"/><path d="m209.42 384.222 59.03-15.376 86.091-151.903 84.159.365 13.327-21.359-12.232-22.089-58.783-.913 28.844-51.298-25.193-42.536" style="fill:#a30262" transform="scale(2.42732 -2.42732)rotate(64.653 1089.842 198.527)"/></g><g style="clip-rule:evenodd;fill-rule:evenodd;stroke-linejoin:round;stroke-miterlimit:1.5"><path d="M1637.93 1186.08s-50.71-3.27-47.42-38.49c1.34-14.32 28.98-46.82 28.98-46.82s-55.15-21-58.36-39.86c-4.63-27.24 9.22-65.737 9.22-65.737s-20.86-28.931-15.96-49.144c5.34-22.043 48.02-83.112 48.02-83.112s-2.12-65.921 14.76-94.328c15.65-26.333 86.52-76.113 86.52-76.113s78.14-72.914 96.92-101.184c17.73-26.696 35.01-41.186 44.01-47.595 4.03-2.869 6.39-4.118 6.39-4.118.32.086 1.92-19.528 27.93-33.411 11.61-6.193 70.49 47.949 78.76 69.204 6.64 17.077 24.83 31.924 29.24 51.297 7.75 34.033-1.05 70.283-3.7 73.031 0 0 46.74 16.492 57.46 34.147 10.17 16.755 6.84 71.78 6.84 71.78s37.46 32.954 40.18 58.18c2.74 25.435-23.73 94.429-23.73 94.429s14.58 49.734 14.36 71.524c-.22 22.42-15.69 63.05-15.69 63.05l-110.46 80.21-118.66 17.4-107.48 18.7z" style="fill:none;stroke:#fff;stroke-width:24.98px" transform="matrix(.55813 0 0 .51287 -860.096 -252.847)"/></g><path d="m1689.37 1332.69-43.67-138.62s40.69 12.13 84.06 9.92c45.6-2.33 93.99-18.94 93.63-16.82-.29 1.71 52.62 3.66 104.04-9.03 2.47 22.43 11.87 112.75 12.76 197.87-54.9 4.83-177.93-26.1-250.82-43.32" style="fill:#ef7627" transform="matrix(.55813 0 0 .51287 -870.656 -270.44)"/><path d="M1934.17 1381.8c-.9-84.85-10.3-174.88-12.77-197.23 8.86-2.18 17.68-4.79 26.17-7.91 16.8-6.18 32.48-14.15 46.37-22.46 1.59-.74 3.09-1.48 4.47-2.2 15.95-8.38 41.79-30.31 56.17-43-2.22 10.41-23.87 112.31-51.25 240.68a250 250 0 0 1-13.53 14.26c-15.48 8.32-32.5 14.78-50.4 17.27-1.66.23-3.41.43-5.23.59" style="fill:#ff9a56" transform="matrix(.55813 0 0 .51454 -867.292 -275.715)"/><path d="m370.157 153.247 9.346 21.645s28.724-45.152 30.353-53.243c1.034-5.138-7.135-8.7-15.055-5.067-8.085 3.709-1.564 18.323-13.557 29.327z" style="fill:#d162a4" transform="matrix(.62013 .37736 .63189 -.87684 -55.6 295.865)"/><path d="m373.097 149.236-3.51 13.449 11.425 10.262s8.154-16.228 11.436-23.857c4.075-9.472 13.016-32.976 13.016-32.976-.048-.084 2.375-16.098 2.375-16.098s-9.722 19.509-13.526 28.616c-3.439 8.23-9.344 12.047-13.069 17.277-3.597 5.049-8.147 3.327-8.147 3.327" style="fill:#a30262" transform="matrix(-.66904 .68678 -.48394 -.39809 385.018 147.85)"/></svg>