<svg version="1.1" id="Layer_1" xmlns="http://www.w3.org/2000/svg" xmlns:xlink="http://www.w3.org/1999/xlink" x="0px" y="0px"
	 width="100%" viewBox="0 0 1616 1616" enable-background="new 0 0 1616 1616" xml:space="preserve">
<path fill="#000000" opacity="1.000000" stroke="none" 
	d="
M927.000000,1.000008 
	C1156.985718,1.000000 1386.971313,1.000000 1616.978516,1.000000 
	C1616.978516,539.618713 1616.978516,1078.237427 1616.978516,1616.928101 
	C1078.414795,1616.928101 539.829712,1616.928101 1.122262,1616.928101 
	C1.122262,1078.448486 1.122262,539.896851 1.122262,1.000000 
	C303.032654,1.000000 605.065430,1.000000 907.843628,1.325762 
	C905.272217,3.126044 901.758911,4.274338 898.672974,6.132448 
	C886.307739,13.577845 874.657043,21.878380 864.731750,32.593670 
	C855.232300,42.849277 847.985474,54.293736 842.853821,67.235992 
	C841.997681,69.395142 840.163025,71.376534 838.333496,72.904785 
	C827.705444,81.782478 816.533142,90.053642 806.356567,99.412491 
	C798.133484,106.974754 790.743530,115.520821 783.549561,124.104454 
	C774.574890,134.812729 765.415222,145.499435 757.711792,157.108704 
	C745.654968,175.278641 731.210754,191.392441 716.795837,207.546036 
	C705.122742,220.627014 693.006042,233.339035 680.627869,245.758011 
	C658.792236,267.665680 636.634460,289.252930 614.554749,310.916382 
	C606.154785,319.157990 597.600403,327.242310 589.107971,335.389496 
	C588.516357,335.957062 587.880249,336.486450 587.220642,336.973816 
	C576.158752,345.147339 564.948425,353.127930 554.057190,361.522491 
	C539.505859,372.738098 525.046143,384.084595 510.834625,395.725861 
	C497.299896,406.812714 483.875671,418.063751 470.892853,429.785278 
	C461.354309,438.397095 452.122986,447.460541 443.655396,457.112854 
	C436.536377,465.227905 429.683411,473.927002 424.597961,483.381653 
	C418.948242,493.885284 414.792816,505.331299 411.123138,516.732788 
	C403.129944,541.567017 400.481659,567.440613 398.114655,593.262756 
	C396.805847,607.540894 396.623657,621.924377 396.026154,636.264221 
	C395.852844,640.423340 396.256042,644.617432 395.906372,648.754211 
	C395.685486,651.367493 395.112091,654.254517 393.743591,656.414917 
	C387.790558,665.812378 381.384674,674.921387 375.330627,684.256653 
	C354.236511,716.783386 333.354462,749.422302 317.452393,784.954285 
	C310.445251,800.611206 307.949432,817.050537 310.247223,833.705322 
	C313.197052,855.086487 321.655457,874.758850 332.644562,893.333069 
	C334.220917,895.997437 336.262421,899.477783 335.737885,902.112549 
	C332.849792,916.620117 328.696869,930.883972 326.022644,945.423645 
	C323.641785,958.368042 322.224487,971.530396 321.159546,984.659668 
	C320.590851,991.670654 321.933777,998.814514 321.946411,1005.899292 
	C321.977417,1023.325623 329.130920,1037.609375 341.181854,1049.587769 
	C353.456665,1061.788696 367.795746,1071.250732 382.969727,1079.453735 
	C392.156708,1084.420166 401.432526,1089.222412 410.513153,1094.016357 
	C403.280975,1105.253540 395.870575,1116.298340 388.943756,1127.638550 
	C378.081787,1145.420776 372.152466,1164.260254 375.853455,1185.580200 
	C378.520966,1200.946777 385.366516,1213.861450 395.691132,1225.131592 
	C404.952911,1235.241577 416.438690,1242.500244 429.078705,1247.240601 
	C436.723755,1250.107788 440.420502,1254.633545 441.622253,1262.134888 
	C441.849976,1263.556519 442.323456,1264.942139 442.727478,1266.331543 
	C447.475647,1282.659790 452.316101,1298.962036 456.966980,1315.317993 
	C463.989166,1340.013428 470.868622,1364.749512 477.831665,1389.461792 
	C482.879242,1407.375977 488.367218,1425.179199 492.874481,1443.227661 
	C495.411591,1453.386963 500.406403,1459.985962 510.953125,1462.006226 
	C522.831421,1464.281738 534.802673,1466.261719 546.492615,1469.297607 
	C589.241333,1480.399536 631.924072,1491.760498 674.565125,1503.270264 
	C708.189697,1512.346313 741.748474,1521.670776 775.277893,1531.093384 
	C809.841980,1540.806641 844.547424,1549.959351 879.973389,1555.927612 
	C900.945801,1559.460938 922.014526,1562.735596 943.170532,1564.764160 
	C959.471802,1566.327271 975.945251,1564.862915 991.495239,1558.999634 
	C1009.679504,1552.142822 1028.394897,1547.670410 1047.582642,1545.036987 
	C1059.617188,1543.385132 1071.379395,1540.735840 1082.098633,1534.915161 
	C1092.269409,1529.392456 1102.007935,1523.078125 1112.130615,1517.461670 
	C1128.296387,1508.492676 1144.748657,1500.032471 1160.780029,1490.834839 
	C1164.178833,1488.884888 1167.873291,1485.067627 1168.733521,1481.466309 
	C1173.935303,1459.687866 1178.257812,1437.701538 1183.058716,1415.825073 
	C1188.616333,1390.500977 1194.384399,1365.223145 1200.024292,1339.916870 
	C1206.050293,1312.876953 1212.024536,1285.825684 1218.037598,1258.782959 
	C1222.686768,1237.874268 1227.353760,1216.969238 1232.026123,1196.065674 
	C1239.016724,1164.789795 1245.971924,1133.505737 1253.066772,1102.253418 
	C1254.155884,1097.456299 1254.740479,1091.838501 1257.648193,1088.334473 
	C1261.522095,1083.666382 1264.245117,1078.765137 1265.965820,1073.216431 
	C1272.615234,1051.776245 1279.435669,1030.378540 1285.499512,1008.770691 
	C1289.706421,993.780212 1292.543091,978.459106 1293.051636,962.768127 
	C1293.671509,943.644531 1291.203613,924.888550 1286.974609,906.326416 
	C1282.221924,885.465576 1277.117554,864.684143 1272.468506,843.800781 
	C1271.329956,838.686218 1268.281372,833.721252 1270.408447,828.102539 
	C1272.675903,822.112610 1275.106445,816.163452 1276.971069,810.045776 
	C1284.871582,784.123718 1292.724121,758.185303 1300.329102,732.175415 
	C1306.446655,711.252563 1310.370239,689.984314 1309.036987,668.009460 
	C1308.725220,662.869202 1309.687622,657.532349 1308.661011,652.576477 
	C1305.234497,636.034180 1297.865234,621.120728 1288.600098,607.051575 
	C1275.206787,586.713989 1259.341431,568.474487 1241.949585,551.523376 
	C1239.741211,549.370972 1238.867432,547.257263 1238.928711,544.197205 
	C1239.122559,534.532288 1239.130249,524.858704 1238.963623,515.192749 
	C1238.798340,505.605286 1238.688110,495.994080 1237.910400,486.445709 
	C1236.958130,474.756226 1235.648682,463.075226 1233.936646,451.472748 
	C1230.891357,430.835449 1222.248413,413.227386 1206.051392,399.355652 
	C1194.897583,389.803040 1182.622070,382.080353 1169.884155,375.127441 
	C1157.080322,368.138580 1143.693848,362.217163 1131.059692,356.069824 
	C1132.712036,341.511475 1135.400269,327.048737 1135.737061,312.531403 
	C1136.161865,294.224304 1135.186890,275.833008 1133.790771,257.556366 
	C1133.046997,247.820938 1130.752197,238.078262 1128.086548,228.641373 
	C1122.389526,208.473267 1110.218262,191.735748 1098.424316,174.807526 
	C1091.437500,164.779053 1084.880127,154.429886 1078.564209,143.962662 
	C1073.931030,136.284164 1070.720459,127.680817 1065.624146,120.361061 
	C1051.932739,100.696030 1036.291138,82.634575 1018.252502,66.750420 
	C1004.210144,54.385342 990.565735,41.529385 976.032166,29.772064 
	C961.521057,18.032852 946.371216,6.944676 927.510803,2.765867 
	C927.224182,2.702365 927.165161,1.611446 927.000000,1.000008 
z"/>
<path fill="#FFFFFF" opacity="1.000000" stroke="none" 
	d="
M926.531738,1.000008 
	C927.165161,1.611446 927.224182,2.702365 927.510803,2.765867 
	C946.371216,6.944676 961.521057,18.032852 976.032166,29.772064 
	C990.565735,41.529385 1004.210144,54.385342 1018.252502,66.750420 
	C1036.291138,82.634575 1051.932739,100.696030 1065.624146,120.361061 
	C1070.720459,127.680817 1073.931030,136.284164 1078.564209,143.962662 
	C1084.880127,154.429886 1091.437500,164.779053 1098.424316,174.807526 
	C1110.218262,191.735748 1122.389526,208.473267 1128.086548,228.641373 
	C1130.752197,238.078262 1133.046997,247.820938 1133.790771,257.556366 
	C1135.186890,275.833008 1136.161865,294.224304 1135.737061,312.531403 
	C1135.400269,327.048737 1132.712036,341.511475 1131.059692,356.069824 
	C1143.693848,362.217163 1157.080322,368.138580 1169.884155,375.127441 
	C1182.622070,382.080353 1194.897583,389.803040 1206.051392,399.355652 
	C1222.248413,413.227386 1230.891357,430.835449 1233.936646,451.472748 
	C1235.648682,463.075226 1236.958130,474.756226 1237.910400,486.445709 
	C1238.688110,495.994080 1238.798340,505.605286 1238.963623,515.192749 
	C1239.130249,524.858704 1239.122559,534.532288 1238.928711,544.197205 
	C1238.867432,547.257263 1239.741211,549.370972 1241.949585,551.523376 
	C1259.341431,568.474487 1275.206787,586.713989 1288.600098,607.051575 
	C1297.865234,621.120728 1305.234497,636.034180 1308.661011,652.576477 
	C1309.687622,657.532349 1308.725220,662.869202 1309.036987,668.009460 
	C1310.370239,689.984314 1306.446655,711.252563 1300.329102,732.175415 
	C1292.724121,758.185303 1284.871582,784.123718 1276.971069,810.045776 
	C1275.106445,816.163452 1272.675903,822.112610 1270.408447,828.102539 
	C1268.281372,833.721252 1271.329956,838.686218 1272.468506,843.800781 
	C1277.117554,864.684143 1282.221924,885.465576 1286.974609,906.326416 
	C1291.203613,924.888550 1293.671509,943.644531 1293.051636,962.768127 
	C1292.543091,978.459106 1289.706421,993.780212 1285.499512,1008.770691 
	C1279.435669,1030.378540 1272.615234,1051.776245 1265.965820,1073.216431 
	C1264.245117,1078.765137 1261.522095,1083.666382 1257.648193,1088.334473 
	C1254.740479,1091.838501 1254.155884,1097.456299 1253.066772,1102.253418 
	C1245.971924,1133.505737 1239.016724,1164.789795 1232.026123,1196.065674 
	C1227.353760,1216.969238 1222.686768,1237.874268 1218.037598,1258.782959 
	C1212.024536,1285.825684 1206.050293,1312.876953 1200.024292,1339.916870 
	C1194.384399,1365.223145 1188.616333,1390.500977 1183.058716,1415.825073 
	C1178.257812,1437.701538 1173.935303,1459.687866 1168.733521,1481.466309 
	C1167.873291,1485.067627 1164.178833,1488.884888 1160.780029,1490.834839 
	C1144.748657,1500.032471 1128.296387,1508.492676 1112.130615,1517.461670 
	C1102.007935,1523.078125 1092.269409,1529.392456 1082.098633,1534.915161 
	C1071.379395,1540.735840 1059.617188,1543.385132 1047.582642,1545.036987 
	C1028.394897,1547.670410 1009.679504,1552.142822 991.495239,1558.999634 
	C975.945251,1564.862915 959.471802,1566.327271 943.170532,1564.764160 
	C922.014526,1562.735596 900.945801,1559.460938 879.973389,1555.927612 
	C844.547424,1549.959351 809.841980,1540.806641 775.277893,1531.093384 
	C741.748474,1521.670776 708.189697,1512.346313 674.565125,1503.270264 
	C631.924072,1491.760498 589.241333,1480.399536 546.492615,1469.297607 
	C534.802673,1466.261719 522.831421,1464.281738 510.953125,1462.006226 
	C500.406403,1459.985962 495.411591,1453.386963 492.874481,1443.227661 
	C488.367218,1425.179199 482.879242,1407.375977 477.831665,1389.461792 
	C470.868622,1364.749512 463.989166,1340.013428 456.966980,1315.317993 
	C452.316101,1298.962036 447.475647,1282.659790 442.727478,1266.331543 
	C442.323456,1264.942139 441.849976,1263.556519 441.622253,1262.134888 
	C440.420502,1254.633545 436.723755,1250.107788 429.078705,1247.240601 
	C416.438690,1242.500244 404.952911,1235.241577 395.691132,1225.131592 
	C385.366516,1213.861450 378.520966,1200.946777 375.853455,1185.580200 
	C372.152466,1164.260254 378.081787,1145.420776 388.943756,1127.638550 
	C395.870575,1116.298340 403.280975,1105.253540 410.513153,1094.016357 
	C401.432526,1089.222412 392.156708,1084.420166 382.969727,1079.453735 
	C367.795746,1071.250732 353.456665,1061.788696 341.181854,1049.587769 
	C329.130920,1037.609375 321.977417,1023.325623 321.946411,1005.899292 
	C321.933777,998.814514 320.590851,991.670654 321.159546,984.659668 
	C322.224487,971.530396 323.641785,958.368042 326.022644,945.423645 
	C328.696869,930.883972 332.849792,916.620117 335.737885,902.112549 
	C336.262421,899.477783 334.220917,895.997437 332.644562,893.333069 
	C321.655457,874.758850 313.197052,855.086487 310.247223,833.705322 
	C307.949432,817.050537 310.445251,800.611206 317.452393,784.954285 
	C333.354462,749.422302 354.236511,716.783386 375.330627,684.256653 
	C381.384674,674.921387 387.790558,665.812378 393.743591,656.414917 
	C395.112091,654.254517 395.685486,651.367493 395.906372,648.754211 
	C396.256042,644.617432 395.852844,640.423340 396.026154,636.264221 
	C396.623657,621.924377 396.805847,607.540894 398.114655,593.262756 
	C400.481659,567.440613 403.129944,541.567017 411.123138,516.732788 
	C414.792816,505.331299 418.948242,493.885284 424.597961,483.381653 
	C429.683411,473.927002 436.536377,465.227905 443.655396,457.112854 
	C452.122986,447.460541 461.354309,438.397095 470.892853,429.785278 
	C483.875671,418.063751 497.299896,406.812714 510.834625,395.725861 
	C525.046143,384.084595 539.505859,372.738098 554.057190,361.522491 
	C564.948425,353.127930 576.158752,345.147339 587.220642,336.973816 
	C587.880249,336.486450 588.516357,335.957062 589.107971,335.389496 
	C597.600403,327.242310 606.154785,319.157990 614.554749,310.916382 
	C636.634460,289.252930 658.792236,267.665680 680.627869,245.758011 
	C693.006042,233.339035 705.122742,220.627014 716.795837,207.546036 
	C731.210754,191.392441 745.654968,175.278641 757.711792,157.108704 
	C765.415222,145.499435 774.574890,134.812729 783.549561,124.104454 
	C790.743530,115.520821 798.133484,106.974754 806.356567,99.412491 
	C816.533142,90.053642 827.705444,81.782478 838.333496,72.904785 
	C840.163025,71.376534 841.997681,69.395142 842.853821,67.235992 
	C847.985474,54.293736 855.232300,42.849277 864.731750,32.593670 
	C874.657043,21.878380 886.307739,13.577845 898.672974,6.132448 
	C901.758911,4.274338 905.272217,3.126044 908.294556,1.325762 
	C914.021179,1.000000 920.042297,1.000000 926.531738,1.000008 
M1235.492798,907.722107 
	C1229.980347,885.498474 1224.643799,863.228943 1218.851562,841.078430 
	C1217.042480,834.160278 1216.484497,827.684143 1218.930664,820.811707 
	C1225.617554,802.024780 1232.295532,783.225281 1238.434448,764.255127 
	C1246.519043,739.271545 1253.743652,714.033813 1257.993774,687.175049 
	C1261.926758,668.674011 1257.504395,652.102051 1247.083008,636.572266 
	C1233.189575,615.868164 1216.808716,597.375977 1198.538330,580.526367 
	C1192.938354,575.361694 1189.015015,569.525085 1187.937866,561.038757 
	C1188.439331,536.650330 1190.231812,512.241699 1187.033081,487.045380 
	C1185.723633,477.194946 1184.317383,467.356140 1183.131958,457.490784 
	C1181.968750,447.810089 1176.915771,440.637421 1169.255615,435.024078 
	C1153.116943,423.197601 1135.622437,413.830536 1116.542236,405.819672 
	C1107.017578,401.896179 1097.362427,398.257874 1088.002075,393.975281 
	C1076.889893,388.891205 1071.450806,376.895447 1074.318359,365.296356 
	C1077.052856,354.235321 1080.215088,343.246765 1082.244263,332.054993 
	C1083.916016,322.834778 1084.933594,313.364044 1084.935913,304.003998 
	C1084.939575,289.937469 1084.411011,275.806122 1082.926880,261.827820 
	C1082.010864,253.200546 1080.548828,243.888474 1076.434082,236.497040 
	C1067.659302,220.734894 1056.997681,206.023087 1046.831177,190.259247 
	C1045.192749,187.757919 1043.368164,185.357422 1041.949097,182.737305 
	C1036.574463,172.813965 1031.938721,162.434555 1025.917725,152.928040 
	C1011.366882,129.953568 991.921082,111.225700 971.755371,92.354546 
	C956.518616,78.895767 941.236633,65.479347 923.330994,55.563934 
	C921.604431,54.607822 918.484558,54.050362 917.079956,54.959221 
	C903.592957,63.685986 892.855469,74.777290 888.756592,90.922218 
	C886.634155,99.282402 881.974121,105.460892 874.575317,109.964333 
	C859.533386,119.119911 846.797363,131.057968 834.449402,143.520416 
	C813.923340,164.236679 798.432495,188.837051 780.345703,212.224472 
	C778.987915,213.906250 777.736694,215.688766 776.256531,217.254913 
	C747.241333,247.953674 718.483276,278.902802 689.059875,309.205719 
	C670.536072,328.283203 651.007446,346.385040 631.340210,365.236298 
	C622.051636,372.957306 612.867737,380.808868 603.443359,388.360321 
	C595.061890,395.076050 586.414001,401.459198 577.204651,408.032959 
	C573.925964,410.522186 570.567627,412.914062 567.384399,415.519806 
	C559.382141,422.070160 551.459106,428.717163 542.861206,435.580719 
	C541.887512,436.206360 540.819702,436.723480 539.954224,437.473877 
	C526.757996,448.915070 513.263367,460.038086 500.492340,471.937317 
	C483.547302,487.725494 466.994629,504.034241 460.839661,527.559998 
	C458.738464,535.591125 457.139801,543.753784 454.871002,552.528748 
	C453.676208,560.031738 452.481445,567.534790 451.085358,575.886414 
	C449.729889,589.843262 447.855255,603.774414 447.165222,617.764099 
	C446.477753,631.702148 446.934235,645.698853 446.979126,659.669617 
	C446.998993,665.851746 445.295135,671.401062 441.863739,676.548889 
	C429.785461,694.669006 417.519684,712.672974 405.859650,731.059998 
	C397.159760,744.779114 389.285065,759.021423 380.512024,773.454285 
	C376.964752,780.298645 373.417511,787.143005 369.328461,794.399353 
	C367.255096,798.932739 364.983765,803.388123 363.158142,808.019165 
	C360.849365,813.875854 359.157074,819.760864 360.454498,826.353943 
	C364.286072,845.824890 373.021484,863.084656 383.919861,879.339233 
	C389.838104,888.166138 391.160126,897.056396 387.739227,907.209595 
	C379.124756,932.777588 373.326508,958.969604 371.204254,986.115906 
	C371.406097,987.076477 371.607941,988.037109 371.938904,989.922668 
	C369.683594,1005.167542 376.384186,1015.800720 389.118866,1023.348755 
	C390.402954,1024.109863 391.572571,1025.061523 392.828064,1025.874023 
	C413.694977,1039.378784 436.035645,1049.951294 458.991638,1059.346802 
	C478.415314,1067.296387 482.737885,1085.684570 469.670258,1102.098022 
	C460.680817,1113.389160 452.360504,1125.213257 443.190826,1137.183716 
	C438.373505,1145.325562 433.162323,1153.264282 428.832611,1161.657593 
	C422.580627,1173.777466 425.314270,1184.541870 436.240723,1193.020874 
	C446.446777,1200.940796 458.297546,1205.036743 470.914307,1208.135010 
	C472.270782,1212.308838 473.656982,1216.473267 474.978882,1220.658081 
	C482.975708,1245.973389 490.942047,1271.298340 498.950470,1296.610107 
	C504.208679,1313.229248 509.594360,1329.808594 514.791809,1346.446655 
	C523.627563,1374.731812 532.299316,1403.068359 541.273132,1431.309204 
	C541.865723,1433.173950 544.202576,1435.315063 546.114685,1435.798462 
	C561.698792,1439.737549 577.372742,1443.322144 593.023682,1446.995728 
	C619.912231,1453.307007 646.794617,1459.644531 673.698181,1465.890991 
	C687.149902,1469.014282 700.621277,1472.060791 714.122925,1474.959717 
	C729.373047,1478.234009 744.656372,1481.356934 759.945007,1484.447754 
	C775.876160,1487.668579 791.798767,1490.948242 807.785034,1493.875000 
	C822.200989,1496.514160 836.692017,1498.747437 851.161011,1501.091675 
	C863.567810,1503.101685 875.959717,1505.244385 888.415161,1506.900146 
	C898.646484,1508.260254 908.952515,1509.095093 919.241516,1509.974854 
	C932.203735,1511.083130 945.168213,1512.439697 958.158447,1512.857178 
	C968.065186,1513.175415 978.013550,1512.198486 988.783569,1511.909912 
	C998.975464,1510.207764 1009.337769,1509.181519 1019.324036,1506.663940 
	C1040.579224,1501.305664 1060.934448,1493.339478 1080.385010,1483.174927 
	C1083.146240,1481.731934 1086.009644,1480.207031 1088.256348,1478.109985 
	C1094.097534,1472.657593 1099.844727,1467.065918 1105.181396,1461.127319 
	C1107.961426,1458.033813 1110.984985,1454.359619 1111.864380,1450.485962 
	C1117.894653,1423.923462 1123.412109,1397.244141 1129.042725,1370.591431 
	C1133.488403,1349.547241 1137.809082,1328.476562 1142.277710,1307.437134 
	C1147.153320,1284.481934 1152.138550,1261.550049 1157.070312,1238.606812 
	C1162.345825,1214.063110 1167.669678,1189.529785 1172.870483,1164.970215 
	C1177.326782,1143.927246 1181.553345,1122.835327 1186.052490,1101.801636 
	C1188.174194,1091.882446 1190.696655,1082.049072 1193.675781,1071.905396 
	C1200.955078,1066.643311 1208.349487,1061.529785 1215.441528,1056.026489 
	C1217.510010,1054.421265 1219.399048,1051.927612 1220.205322,1049.460571 
	C1225.105835,1034.464844 1229.610229,1019.340393 1234.358521,1004.294189 
	C1244.398315,972.480103 1244.265503,940.566589 1235.492798,907.722107 
z"/>
<path fill="#EF7627" opacity="1.000000" stroke="none" 
	d="
M987.943359,1511.797729 
	C978.013550,1512.198486 968.065186,1513.175415 958.158447,1512.857178 
	C945.168213,1512.439697 932.203735,1511.083130 919.241516,1509.974854 
	C908.952515,1509.095093 898.646484,1508.260254 888.415161,1506.900146 
	C875.959717,1505.244385 863.567810,1503.101685 851.161011,1501.091675 
	C836.692017,1498.747437 822.200989,1496.514160 807.785034,1493.875000 
	C791.798767,1490.948242 775.876160,1487.668579 759.945007,1484.447754 
	C744.656372,1481.356934 729.373047,1478.234009 714.122925,1474.959717 
	C700.621277,1472.060791 687.149902,1469.014282 673.698181,1465.890991 
	C646.794617,1459.644531 619.912231,1453.307007 593.023682,1446.995728 
	C577.372742,1443.322144 561.698792,1439.737549 546.114685,1435.798462 
	C544.202576,1435.315063 541.865723,1433.173950 541.273132,1431.309204 
	C532.299316,1403.068359 523.627563,1374.731812 514.791809,1346.446655 
	C509.594360,1329.808594 504.208679,1313.229248 498.950470,1296.610107 
	C490.942047,1271.298340 482.975708,1245.973389 474.978882,1220.658081 
	C473.656982,1216.473267 472.270782,1212.308838 470.828766,1207.367676 
	C469.046631,1200.965698 467.350037,1195.331177 465.348633,1188.684448 
	C468.685181,1189.503052 470.882782,1190.020508 473.069122,1190.581787 
	C514.455444,1201.204712 556.589539,1206.106812 599.238953,1206.946777 
	C603.523804,1207.031006 607.823059,1206.371704 612.115906,1206.061035 
	C622.543518,1205.305908 633.035278,1205.047241 643.387451,1203.709106 
	C678.497803,1199.170654 713.118286,1192.082031 747.482666,1183.541748 
	C761.413391,1180.079590 775.163208,1173.689575 790.184998,1177.950195 
	C790.337158,1177.993408 790.515991,1177.939697 790.682495,1177.935547 
	C814.771729,1177.319824 838.901123,1177.356934 862.937378,1175.879639 
	C881.629272,1174.731079 900.268555,1172.121338 918.813354,1169.367554 
	C934.562683,1167.028809 950.143555,1163.555664 965.863220,1161.043213 
	C966.336365,1165.286377 966.797424,1169.066040 967.144775,1172.856201 
	C968.435669,1186.941040 969.725098,1201.026489 970.944031,1215.117676 
	C971.742371,1224.345703 972.302673,1233.595459 973.174500,1242.815918 
	C974.699341,1258.942627 976.543396,1275.040405 977.943054,1291.177246 
	C978.916138,1302.396240 979.301208,1313.664795 980.070435,1324.902954 
	C981.325012,1343.234253 982.758850,1361.553467 983.962158,1379.887939 
	C984.765137,1392.123169 985.431335,1404.370972 985.923523,1416.622437 
	C986.709717,1436.189941 987.451599,1455.761475 987.918091,1475.338501 
	C988.207458,1487.484863 987.953430,1499.644165 987.943359,1511.797729 
z"/>
<path fill="#A30262" opacity="1.000000" stroke="none" 
	d="
M455.311554,551.856323 
	C457.139801,543.753784 458.738464,535.591125 460.839661,527.559998 
	C466.994629,504.034241 483.547302,487.725494 500.492340,471.937317 
	C513.263367,460.038086 526.757996,448.915070 539.954224,437.473877 
	C540.819702,436.723480 541.887512,436.206360 543.611206,435.669556 
	C547.996155,435.504486 551.636230,435.307709 555.265198,434.986450 
	C568.659363,433.800934 582.064453,432.708496 595.431580,431.267212 
	C598.712585,430.913452 600.719116,431.765533 602.616211,434.320831 
	C622.451111,461.037476 642.317139,487.731232 662.261597,514.366211 
	C675.716858,532.335144 689.311340,550.199829 702.998535,568.415710 
	C703.798645,569.688599 704.400085,570.689392 705.095276,571.620239 
	C720.396545,592.107788 735.703064,612.591431 751.019043,633.067932 
	C772.501709,661.789062 793.962402,690.526855 815.580750,719.145569 
	C816.542114,720.418335 819.055420,721.331909 820.702393,721.145508 
	C834.355225,719.600464 847.975098,717.763000 861.603394,716.001709 
	C875.722656,714.176941 889.840332,712.340210 903.958313,710.505371 
	C918.076233,708.670654 932.195190,706.843262 946.310852,704.991577 
	C960.262207,703.161377 974.199890,701.223389 988.162415,699.483826 
	C1001.139282,697.866943 1014.140930,696.449524 1026.976318,695.260620 
	C1017.456177,708.883179 1008.115906,722.206787 998.721497,735.492188 
	C975.712341,768.031494 952.643066,800.528320 929.671448,833.094116 
	C920.585815,845.974426 911.695374,858.992432 902.436279,872.126343 
	C893.401428,876.682312 884.646179,881.059753 875.442383,885.328125 
	C864.877563,884.752930 854.754944,884.394958 844.646423,883.797913 
	C824.098816,882.584167 803.559937,881.223267 783.015320,879.958374 
	C770.923462,879.213928 758.823730,878.594971 746.734070,877.817993 
	C722.527222,876.262329 698.328552,874.578125 674.119263,873.062927 
	C660.513428,872.211426 646.888794,871.665222 633.280334,870.851868 
	C606.573486,869.255798 579.872131,867.566833 553.168274,865.921021 
	C541.555786,865.205261 529.942993,864.495483 518.329773,863.792603 
	C503.240112,862.879272 488.149872,861.975586 472.750885,860.907593 
	C438.251312,838.494080 404.060760,816.240723 369.870239,793.987366 
	C373.417511,787.143005 376.964752,780.298645 381.227051,773.272095 
	C389.357269,772.304260 396.793274,771.676331 404.183655,770.702271 
	C423.062408,768.213989 441.915070,765.528564 460.789001,763.002869 
	C479.175201,760.542419 497.580536,758.224854 515.966980,755.766296 
	C535.005493,753.220459 554.033264,750.594543 573.061890,747.975037 
	C580.654358,746.929810 588.236328,745.808228 596.299866,744.653076 
	C595.311035,742.860657 594.861267,741.786194 594.192932,740.871521 
	C572.923584,711.764038 551.634338,682.671082 530.345459,653.577881 
	C511.908630,628.382263 493.468628,603.188904 474.884766,577.687500 
	C473.584564,575.764526 472.475708,574.113220 471.266846,572.538696 
	C465.964172,565.632446 460.632599,558.748413 455.311554,551.856323 
z"/>
<path fill="#B55690" opacity="1.000000" stroke="none" 
	d="
M1027.131714,694.944336 
	C1014.140930,696.449524 1001.139282,697.866943 988.162415,699.483826 
	C974.199890,701.223389 960.262207,703.161377 946.310852,704.991577 
	C932.195190,706.843262 918.076233,708.670654 903.958313,710.505371 
	C889.840332,712.340210 875.722656,714.176941 861.603394,716.001709 
	C847.975098,717.763000 834.355225,719.600464 820.702393,721.145508 
	C819.055420,721.331909 816.542114,720.418335 815.580750,719.145569 
	C793.962402,690.526855 772.501709,661.789062 751.019043,633.067932 
	C735.703064,612.591431 720.396545,592.107788 705.095276,571.620239 
	C704.400085,570.689392 703.798645,569.688599 703.455994,568.383179 
	C705.899292,567.844055 708.056763,567.750244 710.178040,567.422058 
	C721.612244,565.653015 733.030640,563.781372 744.467224,562.028809 
	C762.766296,559.224548 781.079956,556.515381 799.379089,553.711243 
	C818.164368,550.832458 836.922607,547.770996 855.729248,545.041138 
	C861.624878,544.185364 865.737366,542.885376 867.844360,535.960449 
	C872.041321,522.166992 877.789246,508.849579 882.767090,495.287994 
	C885.962219,486.583069 888.926331,477.793335 892.266357,468.810364 
	C897.185425,456.123230 901.829224,443.666260 906.479431,431.211731 
	C921.944702,389.791412 937.423767,348.376160 952.875488,306.950806 
	C965.422668,273.312531 977.912048,239.652557 990.564453,206.053955 
	C991.061462,204.734207 992.847351,203.315125 994.260742,203.014557 
	C1010.474487,199.566422 1026.739136,196.358459 1042.967285,192.976013 
	C1044.429932,192.671143 1045.732422,191.597549 1047.109253,190.880920 
	C1056.997681,206.023087 1067.659302,220.734894 1076.434082,236.497040 
	C1080.548828,243.888474 1082.010864,253.200546 1082.926880,261.827820 
	C1084.411011,275.806122 1084.939575,289.937469 1084.935913,304.003998 
	C1084.933594,313.364044 1083.916016,322.834778 1082.244263,332.054993 
	C1080.215088,343.246765 1077.052856,354.235321 1074.318359,365.296356 
	C1071.450806,376.895447 1076.889893,388.891205 1088.002075,393.975281 
	C1097.362427,398.257874 1107.017578,401.896179 1116.828613,406.432922 
	C1117.055664,407.541687 1117.088013,408.070160 1116.923462,408.527863 
	C1108.952881,430.701569 1100.960205,452.867371 1092.982056,475.038361 
	C1089.702148,484.153351 1086.449097,493.278046 1082.982300,502.961273 
	C1084.750732,502.961273 1085.742676,503.087616 1086.693115,502.942657 
	C1105.170044,500.124634 1123.635376,497.230042 1142.117310,494.445801 
	C1157.000610,492.203674 1171.902832,490.087036 1186.796631,487.914734 
	C1190.231812,512.241699 1188.439331,536.650330 1187.432617,561.508911 
	C1182.642578,561.657654 1178.359619,561.090637 1174.072510,561.058777 
	C1158.102783,560.939941 1142.130005,560.884827 1126.163208,561.124146 
	C1124.083496,561.155334 1121.275024,562.494995 1120.081055,564.149841 
	C1104.673096,585.505859 1089.498413,607.030029 1074.262085,628.509888 
	C1058.553345,650.655701 1042.841919,672.799561 1027.131714,694.944336 
z"/>
<path fill="#A30262" opacity="1.000000" stroke="none" 
	d="
M965.798950,1160.584473 
	C950.143555,1163.555664 934.562683,1167.028809 918.813354,1169.367554 
	C900.268555,1172.121338 881.629272,1174.731079 862.937378,1175.879639 
	C838.901123,1177.356934 814.771729,1177.319824 790.682495,1177.935547 
	C790.515991,1177.939697 790.337158,1177.993408 790.184998,1177.950195 
	C775.163208,1173.689575 761.413391,1180.079590 747.482666,1183.541748 
	C713.118286,1192.082031 678.497803,1199.170654 643.387451,1203.709106 
	C633.035278,1205.047241 622.543518,1205.305908 612.115906,1206.061035 
	C607.823059,1206.371704 603.523804,1207.031006 599.238953,1206.946777 
	C556.589539,1206.106812 514.455444,1201.204712 473.069122,1190.581787 
	C470.882782,1190.020508 468.685181,1189.503052 465.348633,1188.684448 
	C467.350037,1195.331177 469.046631,1200.965698 470.794495,1206.992920 
	C458.297546,1205.036743 446.446777,1200.940796 436.240723,1193.020874 
	C425.314270,1184.541870 422.580627,1173.777466 428.832611,1161.657593 
	C433.162323,1153.264282 438.373505,1145.325562 443.929382,1137.055420 
	C456.735443,1135.991455 468.799683,1135.010742 480.871185,1134.130005 
	C504.534515,1132.403198 528.203552,1130.755127 551.867065,1129.030151 
	C569.403992,1127.751587 586.934570,1126.387085 604.470215,1125.090454 
	C627.302124,1123.401978 650.136047,1121.742188 672.969238,1120.071167 
	C691.169312,1118.739258 709.369324,1117.406982 727.569641,1116.078613 
	C745.935974,1114.738159 764.299133,1113.351196 782.670166,1112.078735 
	C803.364685,1110.645264 824.072693,1109.396851 844.754456,1107.803833 
	C846.589233,1107.662598 849.008789,1105.968628 849.895325,1104.318115 
	C852.959167,1098.613892 855.434631,1092.595703 858.187561,1086.721924 
	C875.837158,1049.062744 893.473877,1011.397522 911.168030,973.759216 
	C928.014038,937.924988 944.961304,902.138245 961.784546,866.293335 
	C966.652832,855.920532 971.247009,845.419189 976.159912,834.686401 
	C984.244141,817.739319 992.336792,801.173096 999.887939,784.363586 
	C1001.820557,780.061340 1004.431580,778.429626 1008.735046,778.026978 
	C1018.963379,777.069824 1029.184814,776.014465 1039.387939,774.818604 
	C1061.599976,772.215332 1083.798706,769.499756 1106.403809,766.876709 
	C1108.957642,768.079041 1111.746582,768.726501 1113.149292,770.481812 
	C1118.223877,776.832336 1122.859619,783.535828 1127.612549,790.141052 
	C1142.357056,810.631287 1157.119995,831.108643 1171.721802,851.700134 
	C1172.743530,853.140869 1173.380249,855.860107 1172.726685,857.332214 
	C1163.082886,879.047180 1153.146240,900.631897 1143.371216,922.289001 
	C1136.814087,936.816589 1130.402222,951.409729 1123.669556,966.201904 
	C1123.091187,967.010742 1122.727295,967.572327 1122.452637,968.174622 
	C1106.752686,1002.611084 1091.051636,1037.047119 1075.377563,1071.495361 
	C1073.441040,1075.751465 1071.652710,1080.075073 1069.635498,1084.737915 
	C1074.719482,1084.737915 1078.862183,1084.973022 1082.970459,1084.696411 
	C1099.331421,1083.594604 1115.681396,1082.333252 1132.033691,1081.362061 
	C1132.031982,1081.593018 1132.064087,1082.053711 1132.052368,1082.025146 
	C1132.040649,1081.996460 1132.040161,1082.056641 1131.782227,1082.099976 
	C1131.340942,1082.424072 1131.157471,1082.704712 1130.988525,1082.991211 
	C1131.002930,1082.996826 1130.982056,1082.971802 1130.660400,1082.983643 
	C1129.557983,1083.662720 1128.777222,1084.329834 1127.998291,1084.998535 
	C1128.000000,1085.000000 1127.997192,1084.995850 1127.652344,1085.016968 
	C1125.191284,1086.677368 1123.074829,1088.316528 1120.979248,1089.973145 
	C1121.000000,1089.990356 1120.959473,1089.948364 1120.637939,1089.959961 
	C1119.534546,1090.638184 1118.752563,1091.304810 1117.985352,1091.984131 
	C1118.000000,1091.996826 1117.974243,1091.964600 1117.622559,1091.982056 
	C1114.843506,1093.663818 1112.415894,1095.328125 1109.994141,1096.996216 
	C1110.000000,1097.000000 1109.994019,1096.987183 1109.670410,1096.991943 
	C1108.549438,1097.650513 1107.751953,1098.304443 1106.975586,1098.979736 
	C1106.996704,1099.000977 1106.976074,1098.945068 1106.671997,1098.952148 
	C1105.927368,1099.323486 1105.486816,1099.687622 1105.028076,1100.025879 
	C1105.010010,1100.000000 1105.036255,1100.053589 1104.769653,1100.083496 
	C1104.246582,1100.354492 1103.989990,1100.595581 1103.455078,1101.029053 
	C1099.178223,1103.534912 1095.168701,1105.829712 1091.182495,1108.164429 
	C1063.470459,1124.395020 1034.752319,1138.508057 1004.268799,1148.763184 
	C991.558411,1153.039062 978.628845,1156.663696 965.798950,1160.584473 
z"/>
<path fill="#B55690" opacity="1.000000" stroke="none" 
	d="
M975.966919,834.976807 
	C971.247009,845.419189 966.652832,855.920532 961.784546,866.293335 
	C944.961304,902.138245 928.014038,937.924988 911.168030,973.759216 
	C893.473877,1011.397522 875.837158,1049.062744 858.187561,1086.721924 
	C855.434631,1092.595703 852.959167,1098.613892 849.895325,1104.318115 
	C849.008789,1105.968628 846.589233,1107.662598 844.754456,1107.803833 
	C824.072693,1109.396851 803.364685,1110.645264 782.670166,1112.078735 
	C764.299133,1113.351196 745.935974,1114.738159 727.569641,1116.078613 
	C709.369324,1117.406982 691.169312,1118.739258 672.969238,1120.071167 
	C650.136047,1121.742188 627.302124,1123.401978 604.470215,1125.090454 
	C586.934570,1126.387085 569.403992,1127.751587 551.867065,1129.030151 
	C528.203552,1130.755127 504.534515,1132.403198 480.871185,1134.130005 
	C468.799683,1135.010742 456.735443,1135.991455 444.204529,1136.863037 
	C452.360504,1125.213257 460.680817,1113.389160 469.670258,1102.098022 
	C482.737885,1085.684570 478.415314,1067.296387 458.991638,1059.346802 
	C436.035645,1049.951294 413.694977,1039.378784 392.828064,1025.874023 
	C391.572571,1025.061523 390.402954,1024.109863 389.118866,1023.348755 
	C376.384186,1015.800720 369.683594,1005.167542 371.946472,989.089417 
	C371.913940,987.504822 371.873810,986.753479 371.833679,986.002136 
	C373.326508,958.969604 379.124756,932.777588 387.739227,907.209595 
	C391.160126,897.056396 389.838104,888.166138 383.919861,879.339233 
	C373.021484,863.084656 364.286072,845.824890 360.454498,826.353943 
	C359.157074,819.760864 360.849365,813.875854 363.158142,808.019165 
	C364.983765,803.388123 367.255096,798.932739 369.599365,794.193359 
	C404.060760,816.240723 438.251312,838.494080 472.944214,861.170776 
	C475.705414,862.991516 477.993134,864.344727 480.218842,865.793091 
	C515.153870,888.525879 550.081177,911.270386 585.009705,934.013245 
	C613.676025,952.678711 642.358948,971.318848 670.973022,990.063965 
	C673.191772,991.517456 674.831909,991.749023 677.237305,990.457581 
	C690.571899,983.298706 704.002197,976.317749 717.410950,969.297302 
	C738.925232,958.033081 760.428223,946.747070 781.972473,935.540405 
	C809.869019,921.029724 837.821960,906.627380 865.692627,892.067383 
	C869.270264,890.198364 872.500061,887.663574 875.890991,885.437195 
	C884.646179,881.059753 893.401428,876.682312 902.826294,872.116943 
	C921.561462,862.569336 939.607239,853.171265 957.703613,843.871521 
	C963.724854,840.777161 969.875427,837.934509 975.966919,834.976807 
z"/>
<path fill="#FF9A56" opacity="1.000000" stroke="none" 
	d="
M965.863220,1161.043213 
	C978.628845,1156.663696 991.558411,1153.039062 1004.268799,1148.763184 
	C1034.752319,1138.508057 1063.470459,1124.395020 1091.182495,1108.164429 
	C1095.168701,1105.829712 1099.178223,1103.534912 1103.731934,1101.015625 
	C1104.536743,1100.557617 1104.786499,1100.305542 1105.036255,1100.053589 
	C1105.036255,1100.053589 1105.010010,1100.000000 1105.331055,1100.014893 
	C1106.093506,1099.668091 1106.534790,1099.306641 1106.976074,1098.945068 
	C1106.976074,1098.945068 1106.996704,1099.000977 1107.333496,1099.002441 
	C1108.444824,1098.331665 1109.219482,1097.659424 1109.994019,1096.987183 
	C1109.994019,1096.987183 1110.000000,1097.000000 1110.368530,1097.016479 
	C1113.149414,1095.343506 1115.561768,1093.654053 1117.974243,1091.964600 
	C1117.974243,1091.964600 1118.000000,1091.996826 1118.344238,1092.007324 
	C1119.445435,1091.328125 1120.202393,1090.638184 1120.959473,1089.948364 
	C1120.959473,1089.948364 1121.000000,1089.990356 1121.348877,1090.000122 
	C1123.797729,1088.338623 1125.897461,1086.667236 1127.997192,1084.995850 
	C1127.997192,1084.995850 1128.000000,1085.000000 1128.354980,1085.018677 
	C1129.467285,1084.348877 1130.224731,1083.660278 1130.982056,1082.971802 
	C1130.982056,1082.971802 1131.002930,1082.996826 1131.231201,1082.923706 
	C1131.653076,1082.585938 1131.846558,1082.321289 1132.040161,1082.056641 
	C1132.040161,1082.056641 1132.040649,1081.996460 1132.354980,1082.016968 
	C1133.109985,1081.672363 1133.550659,1081.307129 1133.997559,1080.969482 
	C1134.003662,1080.997070 1133.948364,1080.985840 1134.192749,1080.896851 
	C1134.629395,1080.527222 1134.821655,1080.246582 1135.011108,1079.989502 
	C1135.008423,1080.013062 1134.961792,1080.004761 1135.270142,1079.987061 
	C1136.045166,1079.620605 1136.511841,1079.271851 1136.988281,1078.955811 
	C1136.998169,1078.988403 1136.932007,1078.971436 1137.181641,1078.865723 
	C1137.622925,1078.460938 1137.814697,1078.161865 1138.178711,1077.583008 
	C1159.774780,1060.230591 1181.198364,1043.157837 1202.283203,1026.355347 
	C1202.069824,1027.493164 1201.732788,1029.425537 1201.342896,1031.347046 
	C1198.580566,1044.958252 1195.807129,1058.567139 1193.037354,1072.176758 
	C1190.696655,1082.049072 1188.174194,1091.882446 1186.052490,1101.801636 
	C1181.553345,1122.835327 1177.326782,1143.927246 1172.870483,1164.970215 
	C1167.669678,1189.529785 1162.345825,1214.063110 1157.070312,1238.606812 
	C1152.138550,1261.550049 1147.153320,1284.481934 1142.277710,1307.437134 
	C1137.809082,1328.476562 1133.488403,1349.547241 1129.042725,1370.591431 
	C1123.412109,1397.244141 1117.894653,1423.923462 1111.864380,1450.485962 
	C1110.984985,1454.359619 1107.961426,1458.033813 1105.181396,1461.127319 
	C1099.844727,1467.065918 1094.097534,1472.657593 1088.256348,1478.109985 
	C1086.009644,1480.207031 1083.146240,1481.731934 1080.385010,1483.174927 
	C1060.934448,1493.339478 1040.579224,1501.305664 1019.324036,1506.663940 
	C1009.337769,1509.181519 998.975464,1510.207764 988.363464,1511.853760 
	C987.953430,1499.644165 988.207458,1487.484863 987.918091,1475.338501 
	C987.451599,1455.761475 986.709717,1436.189941 985.923523,1416.622437 
	C985.431335,1404.370972 984.765137,1392.123169 983.962158,1379.887939 
	C982.758850,1361.553467 981.325012,1343.234253 980.070435,1324.902954 
	C979.301208,1313.664795 978.916138,1302.396240 977.943054,1291.177246 
	C976.543396,1275.040405 974.699341,1258.942627 973.174500,1242.815918 
	C972.302673,1233.595459 971.742371,1224.345703 970.944031,1215.117676 
	C969.725098,1201.026489 968.435669,1186.941040 967.144775,1172.856201 
	C966.797424,1169.066040 966.336365,1165.286377 965.863220,1161.043213 
z"/>
<path fill="#D162A4" opacity="1.000000" stroke="none" 
	d="
M891.993958,469.041565 
	C888.926331,477.793335 885.962219,486.583069 882.767090,495.287994 
	C877.789246,508.849579 872.041321,522.166992 867.844360,535.960449 
	C865.737366,542.885376 861.624878,544.185364 855.729248,545.041138 
	C836.922607,547.770996 818.164368,550.832458 799.379089,553.711243 
	C781.079956,556.515381 762.766296,559.224548 744.467224,562.028809 
	C733.030640,563.781372 721.612244,565.653015 710.178040,567.422058 
	C708.056763,567.750244 705.899292,567.844055 703.301025,568.078552 
	C689.311340,550.199829 675.716858,532.335144 662.261597,514.366211 
	C642.317139,487.731232 622.451111,461.037476 602.616211,434.320831 
	C600.719116,431.765533 598.712585,430.913452 595.431580,431.267212 
	C582.064453,432.708496 568.659363,433.800934 555.265198,434.986450 
	C551.636230,435.307709 547.996155,435.504486 543.932739,435.541870 
	C551.459106,428.717163 559.382141,422.070160 567.384399,415.519806 
	C570.567627,412.914062 573.925964,410.522186 577.976929,407.984863 
	C602.634766,412.014069 626.520264,416.091400 651.254517,420.313599 
	C646.920898,407.488739 643.004333,395.698059 638.942505,383.957672 
	C636.732300,377.569183 634.275330,371.266113 631.929626,364.924530 
	C651.007446,346.385040 670.536072,328.283203 689.059875,309.205719 
	C718.483276,278.902802 747.241333,247.953674 776.256531,217.254913 
	C777.736694,215.688766 778.987915,213.906250 780.658569,212.466156 
	C781.471436,214.785263 781.806335,216.919449 782.497620,218.931213 
	C788.301331,235.821899 794.115784,252.709366 800.038574,269.558594 
	C804.199585,281.395966 808.534851,293.172089 812.851013,305.364807 
	C822.060791,332.097900 831.202698,358.444916 840.365662,384.784607 
	C849.148193,410.030853 857.984924,435.258362 866.700989,460.527527 
	C867.642517,463.257080 868.635864,464.933441 871.968506,465.357361 
	C878.691101,466.212555 885.324036,467.772400 891.993958,469.041565 
z"/>
<path fill="#D162A4" opacity="1.000000" stroke="none" 
	d="
M976.159851,834.686401 
	C969.875427,837.934509 963.724854,840.777161 957.703613,843.871521 
	C939.607239,853.171265 921.561462,862.569336 903.105957,871.938416 
	C911.695374,858.992432 920.585815,845.974426 929.671448,833.094116 
	C952.643066,800.528320 975.712341,768.031494 998.721497,735.492188 
	C1008.115906,722.206787 1017.456177,708.883179 1026.976318,695.260620 
	C1042.841919,672.799561 1058.553345,650.655701 1074.262085,628.509888 
	C1089.498413,607.030029 1104.673096,585.505859 1120.081055,564.149841 
	C1121.275024,562.494995 1124.083496,561.155334 1126.163208,561.124146 
	C1142.130005,560.884827 1158.102783,560.939941 1174.072510,561.058777 
	C1178.359619,561.090637 1182.642578,561.657654 1187.371826,561.971191 
	C1189.015015,569.525085 1192.938354,575.361694 1198.538330,580.526367 
	C1216.808716,597.375977 1233.189575,615.868164 1247.083008,636.572266 
	C1257.504395,652.102051 1261.926758,668.674011 1257.534424,687.596558 
	C1255.388306,688.678101 1253.621094,689.184998 1252.026978,690.021729 
	C1233.781738,699.598145 1215.601318,709.298889 1197.326538,718.818481 
	C1176.388428,729.725403 1155.336426,740.413574 1134.407593,751.337952 
	C1124.848389,756.327637 1115.465698,761.655457 1106.002930,766.830017 
	C1083.798706,769.499756 1061.599976,772.215332 1039.387939,774.818604 
	C1029.184814,776.014465 1018.963379,777.069824 1008.735046,778.026978 
	C1004.431580,778.429626 1001.820557,780.061340 999.887939,784.363586 
	C992.336792,801.173096 984.244141,817.739319 976.159851,834.686401 
z"/>
<path fill="#A30262" opacity="1.000000" stroke="none" 
	d="
M892.266357,468.810333 
	C885.324036,467.772400 878.691101,466.212555 871.968506,465.357361 
	C868.635864,464.933441 867.642517,463.257080 866.700989,460.527527 
	C857.984924,435.258362 849.148193,410.030853 840.365662,384.784607 
	C831.202698,358.444916 822.060791,332.097900 813.036865,305.071045 
	C832.497131,278.401123 851.799133,252.390900 871.170776,226.432709 
	C899.483398,188.493774 927.811584,150.566360 956.219543,112.698814 
	C961.275879,105.958824 966.751953,99.533630 972.034180,92.963089 
	C991.921082,111.225700 1011.366882,129.953568 1025.917725,152.928040 
	C1031.938721,162.434555 1036.574463,172.813965 1041.949097,182.737305 
	C1043.368164,185.357422 1045.192749,187.757919 1046.970215,190.570099 
	C1045.732422,191.597549 1044.429932,192.671143 1042.967285,192.976013 
	C1026.739136,196.358459 1010.474487,199.566422 994.260742,203.014557 
	C992.847351,203.315125 991.061462,204.734207 990.564453,206.053955 
	C977.912048,239.652557 965.422668,273.312531 952.875488,306.950806 
	C937.423767,348.376160 921.944702,389.791412 906.479431,431.211731 
	C901.829224,443.666260 897.185425,456.123230 892.266357,468.810333 
z"/>
<path fill="#B55690" opacity="1.000000" stroke="none" 
	d="
M475.030029,577.994568 
	C493.468628,603.188904 511.908630,628.382263 530.345459,653.577881 
	C551.634338,682.671082 572.923584,711.764038 594.192932,740.871521 
	C594.861267,741.786194 595.311035,742.860657 596.299866,744.653076 
	C588.236328,745.808228 580.654358,746.929810 573.061890,747.975037 
	C554.033264,750.594543 535.005493,753.220459 515.966980,755.766296 
	C497.580536,758.224854 479.175201,760.542419 460.789001,763.002869 
	C441.915070,765.528564 423.062408,768.213989 404.183655,770.702271 
	C396.793274,771.676331 389.357269,772.304260 381.492493,773.060303 
	C389.285065,759.021423 397.159760,744.779114 405.859650,731.059998 
	C417.519684,712.672974 429.785461,694.669006 441.863739,676.548889 
	C445.295135,671.401062 446.998993,665.851746 446.979126,659.669617 
	C446.934235,645.698853 446.477753,631.702148 447.165222,617.764099 
	C447.855255,603.774414 449.729889,589.843262 451.591064,575.455261 
	C455.161407,575.549988 458.211731,576.190857 461.294098,576.574768 
	C465.860809,577.143677 470.450256,577.530334 475.030029,577.994568 
z"/>
<path fill="#B55690" opacity="1.000000" stroke="none" 
	d="
M1106.403809,766.876709 
	C1115.465698,761.655457 1124.848389,756.327637 1134.407593,751.337952 
	C1155.336426,740.413574 1176.388428,729.725403 1197.326538,718.818481 
	C1215.601318,709.298889 1233.781738,699.598145 1252.026978,690.021729 
	C1253.621094,689.184998 1255.388306,688.678101 1257.439331,688.014587 
	C1253.743652,714.033813 1246.519043,739.271545 1238.434448,764.255127 
	C1232.295532,783.225281 1225.617554,802.024780 1218.930664,820.811707 
	C1216.484497,827.684143 1217.042480,834.160278 1218.851562,841.078430 
	C1224.643799,863.228943 1229.980347,885.498474 1235.230957,908.439331 
	C1234.574097,909.454224 1234.212646,909.817444 1233.779053,910.040466 
	C1202.662354,926.041687 1171.549927,942.051392 1140.408203,958.004150 
	C1134.978149,960.785706 1129.422974,963.323303 1123.925537,965.973633 
	C1130.402222,951.409729 1136.814087,936.816589 1143.371216,922.289001 
	C1153.146240,900.631897 1163.082886,879.047180 1172.726685,857.332214 
	C1173.380249,855.860107 1172.743530,853.140869 1171.721802,851.700134 
	C1157.119995,831.108643 1142.357056,810.631287 1127.612549,790.141052 
	C1122.859619,783.535828 1118.223877,776.832336 1113.149292,770.481812 
	C1111.746582,768.726501 1108.957642,768.079041 1106.403809,766.876709 
z"/>
<path fill="#B55690" opacity="1.000000" stroke="none" 
	d="
M971.894775,92.658813 
	C966.751953,99.533630 961.275879,105.958824 956.219543,112.698814 
	C927.811584,150.566360 899.483398,188.493774 871.170776,226.432709 
	C851.799133,252.390900 832.497131,278.401123 812.978149,304.681824 
	C808.534851,293.172089 804.199585,281.395966 800.038574,269.558594 
	C794.115784,252.709366 788.301331,235.821899 782.497620,218.931213 
	C781.806335,216.919449 781.471436,214.785263 780.948792,212.295959 
	C798.432495,188.837051 813.923340,164.236679 834.449402,143.520416 
	C846.797363,131.057968 859.533386,119.119911 874.575317,109.964333 
	C881.974121,105.460892 886.634155,99.282402 888.756592,90.922218 
	C892.855469,74.777290 903.592957,63.685986 917.079956,54.959221 
	C918.484558,54.050362 921.604431,54.607822 923.330994,55.563934 
	C941.236633,65.479347 956.518616,78.895767 971.894775,92.658813 
z"/>
<path fill="#D162A4" opacity="1.000000" stroke="none" 
	d="
M1123.669556,966.201904 
	C1129.422974,963.323303 1134.978149,960.785706 1140.408203,958.004150 
	C1171.549927,942.051392 1202.662354,926.041687 1233.779053,910.040466 
	C1234.212646,909.817444 1234.574097,909.454224 1235.224121,908.849304 
	C1244.265503,940.566589 1244.398315,972.480103 1234.358521,1004.294189 
	C1229.610229,1019.340393 1225.105835,1034.464844 1220.205322,1049.460571 
	C1219.399048,1051.927612 1217.510010,1054.421265 1215.441528,1056.026489 
	C1208.349487,1061.529785 1200.955078,1066.643311 1193.356567,1072.041016 
	C1195.807129,1058.567139 1198.580566,1044.958252 1201.342896,1031.347046 
	C1201.732788,1029.425537 1202.069824,1027.493164 1202.283203,1026.355347 
	C1181.198364,1043.157837 1159.774780,1060.230591 1137.932617,1077.699097 
	C1137.320068,1078.387207 1137.126099,1078.679321 1136.932007,1078.971436 
	C1136.932007,1078.971436 1136.998169,1078.988403 1136.683472,1078.975586 
	C1135.899780,1079.310181 1135.430786,1079.657471 1134.961792,1080.004761 
	C1134.961792,1080.004761 1135.008423,1080.013062 1134.760010,1080.072998 
	C1134.323730,1080.417236 1134.136108,1080.701538 1133.948364,1080.985840 
	C1133.948364,1080.985840 1134.003662,1080.997070 1133.668701,1080.968140 
	C1132.900879,1081.003174 1132.468262,1081.067139 1132.035522,1081.131104 
	C1115.681396,1082.333252 1099.331421,1083.594604 1082.970459,1084.696411 
	C1078.862183,1084.973022 1074.719482,1084.737915 1069.635498,1084.737915 
	C1071.652710,1080.075073 1073.441040,1075.751465 1075.377563,1071.495361 
	C1091.051636,1037.047119 1106.752686,1002.611084 1122.452637,968.174622 
	C1122.727295,967.572327 1123.091187,967.010742 1123.669556,966.201904 
z"/>
<path fill="#A30362" opacity="1.000000" stroke="none" 
	d="
M1186.914795,487.480042 
	C1171.902832,490.087036 1157.000610,492.203674 1142.117310,494.445801 
	C1123.635376,497.230042 1105.170044,500.124634 1086.693115,502.942657 
	C1085.742676,503.087616 1084.750732,502.961273 1082.982300,502.961273 
	C1086.449097,493.278046 1089.702148,484.153351 1092.982056,475.038361 
	C1100.960205,452.867371 1108.952881,430.701569 1116.923462,408.527863 
	C1117.088013,408.070160 1117.055664,407.541687 1117.118652,406.667236 
	C1135.622437,413.830536 1153.116943,423.197601 1169.255615,435.024078 
	C1176.915771,440.637421 1181.968750,447.810089 1183.131958,457.490784 
	C1184.317383,467.356140 1185.723633,477.194946 1186.914795,487.480042 
z"/>
<path fill="#A40363" opacity="1.000000" stroke="none" 
	d="
M631.634888,365.080414 
	C634.275330,371.266113 636.732300,377.569183 638.942505,383.957672 
	C643.004333,395.698059 646.920898,407.488739 651.254517,420.313599 
	C626.520264,416.091400 602.634766,412.014069 578.316528,407.962952 
	C586.414001,401.459198 595.061890,395.076050 603.443359,388.360321 
	C612.867737,380.808868 622.051636,372.957306 631.634888,365.080414 
z"/>
<path fill="#D062A4" opacity="1.000000" stroke="none" 
	d="
M474.884766,577.687500 
	C470.450256,577.530334 465.860809,577.143677 461.294098,576.574768 
	C458.211731,576.190857 455.161407,575.549988 451.691711,575.030945 
	C452.481445,567.534790 453.676208,560.031738 455.091278,552.192505 
	C460.632599,558.748413 465.964172,565.632446 471.266846,572.538696 
	C472.475708,574.113220 473.584564,575.764526 474.884766,577.687500 
z"/>
<path fill="#FFFEFF" opacity="1.000000" stroke="none" 
	d="
M371.518982,986.059021 
	C371.873810,986.753479 371.913940,987.504822 371.881927,988.626953 
	C371.607941,988.037109 371.406097,987.076477 371.518982,986.059021 
z"/>
<path fill="#D162A4" opacity="1.000000" stroke="none" 
	d="
M875.442383,885.328125 
	C872.500061,887.663574 869.270264,890.198364 865.692627,892.067383 
	C837.821960,906.627380 809.869019,921.029724 781.972473,935.540405 
	C760.428223,946.747070 738.925232,958.033081 717.410950,969.297302 
	C704.002197,976.317749 690.571899,983.298706 677.237305,990.457581 
	C674.831909,991.749023 673.191772,991.517456 670.973022,990.063965 
	C642.358948,971.318848 613.676025,952.678711 585.009705,934.013245 
	C550.081177,911.270386 515.153870,888.525879 480.218842,865.793091 
	C477.993134,864.344727 475.705414,862.991516 473.253235,861.330933 
	C488.149872,861.975586 503.240112,862.879272 518.329773,863.792603 
	C529.942993,864.495483 541.555786,865.205261 553.168274,865.921021 
	C579.872131,867.566833 606.573486,869.255798 633.280334,870.851868 
	C646.888794,871.665222 660.513428,872.211426 674.119263,873.062927 
	C698.328552,874.578125 722.527222,876.262329 746.734070,877.817993 
	C758.823730,878.594971 770.923462,879.213928 783.015320,879.958374 
	C803.559937,881.223267 824.098816,882.584167 844.646423,883.797913 
	C854.754944,884.394958 864.877563,884.752930 875.442383,885.328125 
z"/>
<path fill="#E4683A" opacity="1.000000" stroke="none" 
	d="
M1117.622559,1091.982056 
	C1115.561768,1093.654053 1113.149414,1095.343506 1110.362793,1097.012695 
	C1112.415894,1095.328125 1114.843506,1093.663818 1117.622559,1091.982056 
z"/>
<path fill="#E4683A" opacity="1.000000" stroke="none" 
	d="
M1127.652344,1085.016968 
	C1125.897461,1086.667236 1123.797729,1088.338623 1121.328125,1089.982910 
	C1123.074829,1088.316528 1125.191284,1086.677368 1127.652344,1085.016968 
z"/>
<path fill="#E4683A" opacity="1.000000" stroke="none" 
	d="
M1130.660400,1082.983643 
	C1130.224731,1083.660278 1129.467285,1084.348877 1128.353271,1085.017090 
	C1128.777222,1084.329834 1129.557983,1083.662720 1130.660400,1082.983643 
z"/>
<path fill="#E4683A" opacity="1.000000" stroke="none" 
	d="
M1120.637939,1089.959961 
	C1120.202393,1090.638184 1119.445435,1091.328125 1118.329468,1091.994629 
	C1118.752563,1091.304810 1119.534546,1090.638184 1120.637939,1089.959961 
z"/>
<path fill="#E4683A" opacity="1.000000" stroke="none" 
	d="
M1109.670410,1096.991943 
	C1109.219482,1097.659424 1108.444824,1098.331665 1107.312256,1098.981201 
	C1107.751953,1098.304443 1108.549438,1097.650513 1109.670410,1096.991943 
z"/>
<path fill="#E4683A" opacity="1.000000" stroke="none" 
	d="
M1132.033691,1081.362061 
	C1132.468262,1081.067139 1132.900879,1081.003174 1133.662476,1080.940674 
	C1133.550659,1081.307129 1133.109985,1081.672363 1132.366699,1082.045654 
	C1132.064087,1082.053711 1132.031982,1081.593018 1132.033691,1081.362061 
z"/>
<path fill="#E4683A" opacity="1.000000" stroke="none" 
	d="
M1106.671997,1098.952148 
	C1106.534790,1099.306641 1106.093506,1099.668091 1105.349243,1100.040649 
	C1105.486816,1099.687622 1105.927368,1099.323486 1106.671997,1098.952148 
z"/>
<path fill="#E4683A" opacity="1.000000" stroke="none" 
	d="
M1131.782227,1082.099976 
	C1131.846558,1082.321289 1131.653076,1082.585938 1131.216797,1082.917969 
	C1131.157471,1082.704712 1131.340942,1082.424072 1131.782227,1082.099976 
z"/>
<path fill="#E4683A" opacity="1.000000" stroke="none" 
	d="
M1104.769653,1100.083496 
	C1104.786499,1100.305542 1104.536743,1100.557617 1104.010254,1100.823242 
	C1103.989990,1100.595581 1104.246582,1100.354492 1104.769653,1100.083496 
z"/>
<path fill="#E4683A" opacity="1.000000" stroke="none" 
	d="
M1135.270142,1079.987061 
	C1135.430786,1079.657471 1135.899780,1079.310181 1136.673584,1078.942993 
	C1136.511841,1079.271851 1136.045166,1079.620605 1135.270142,1079.987061 
z"/>
<path fill="#E4683A" opacity="1.000000" stroke="none" 
	d="
M1134.192749,1080.896851 
	C1134.136108,1080.701538 1134.323730,1080.417236 1134.762695,1080.049438 
	C1134.821655,1080.246582 1134.629395,1080.527222 1134.192749,1080.896851 
z"/>
<path fill="#E4683A" opacity="1.000000" stroke="none" 
	d="
M1137.181641,1078.865723 
	C1137.126099,1078.679321 1137.320068,1078.387207 1137.760254,1077.978760 
	C1137.814697,1078.161865 1137.622925,1078.460938 1137.181641,1078.865723 
z"/>
</svg>